HIERARCHY
ROOT Hips
{
	OFFSET -3.958830 18.904000 13.208200
	CHANNELS 6 Xposition Yposition Zposition Zrotation Yrotation Xrotation 
	JOINT LHipJoint
	{
		OFFSET 0.000000 0.000000 0.000000
		CHANNELS 3 Zrotation Yrotation Xrotation
		JOINT LeftUpLeg
		{
			OFFSET 1.800000 -1.400000 0.085000
			CHANNELS 3 Zrotation Yrotation Xrotation
			JOINT LeftLeg
			{
				OFFSET 2.215000 -6.000000 0.000000
				CHANNELS 3 Zrotation Yrotation Xrotation
				JOINT LeftFoot
				{
					OFFSET 2.500000 -6.900000 0.000000
					CHANNELS 3 Zrotation Yrotation Xrotation
					JOINT LeftToeBase
					{
						OFFSET 0.200000 -0.500000 1.950000
						CHANNELS 3 Zrotation Yrotation Xrotation
						End Site
						{
							OFFSET 0.000000 0.000000 0.000000
						}
					}
				}
			}
		}
	}
	JOINT RHipJoint
	{
		OFFSET 0.000000 0.000000 0.000000
		CHANNELS 3 Zrotation Yrotation Xrotation
		JOINT RightUpLeg
		{
			OFFSET -1.800000 -1.400000 0.085000
			CHANNELS 3 Zrotation Yrotation Xrotation
			JOINT RightLeg
			{
				OFFSET -2.215000 -6.000000 0.000000
				CHANNELS 3 Zrotation Yrotation Xrotation
				JOINT RightFoot
				{
					OFFSET -2.500000 -6.900000 0.000000
					CHANNELS 3 Zrotation Yrotation Xrotation
					JOINT RightToeBase
					{
						OFFSET -0.200000 -0.500000 1.950000
						CHANNELS 3 Zrotation Yrotation Xrotation
						End Site
						{
							OFFSET 0.000000 0.000000 0.000000
						}
					}
				}
			}
		}
	}
	JOINT LowerBack
	{
		OFFSET 0.000000 0.000000 0.000000
		CHANNELS 3 Zrotation Yrotation Xrotation
		JOINT Spine
		{
			OFFSET -0.087000 1.940000 -0.288900
			CHANNELS 3 Zrotation Yrotation Xrotation
			JOINT Spine1
			{
				OFFSET 0.000000 1.950000 0.060000
				CHANNELS 3 Zrotation Yrotation Xrotation
				JOINT Neck
				{
					OFFSET 0.000000 0.000000 0.000000
					CHANNELS 3 Zrotation Yrotation Xrotation
					JOINT Neck1
					{
						OFFSET 0.000000 1.600000 0.340000
						CHANNELS 3 Zrotation Yrotation Xrotation
						JOINT Head
						{
							OFFSET 0.000000 1.667000 -0.240000
							CHANNELS 3 Zrotation Yrotation Xrotation
							End Site
							{
								OFFSET 0.000000 0.000000 0.000000
							}
						}
					}
				}
				JOINT LeftShoulder
				{
					OFFSET 0.000000 0.000000 0.000000
					CHANNELS 3 Zrotation Yrotation Xrotation
					JOINT LeftArm
					{
						OFFSET 2.700000 1.550000 -0.730000
						CHANNELS 3 Zrotation Yrotation Xrotation
						JOINT LeftForeArm
						{
							OFFSET 5.450000 0.000000 0.000000
							CHANNELS 3 Zrotation Yrotation Xrotation
							JOINT LeftHand
							{
								OFFSET 3.450000 0.000000 0.000000
								CHANNELS 3 Zrotation Yrotation Xrotation
								JOINT LeftHandIndex1
								{
									OFFSET 0.750000 0.000000 0.000000
									CHANNELS 3 Zrotation Yrotation Xrotation
									End Site
									{
										OFFSET 0.000000 0.000000 0.000000
									}
								}
							}
						}
					}
				}
				JOINT RightShoulder
				{
					OFFSET 0.000000 0.000000 0.000000
					CHANNELS 3 Zrotation Yrotation Xrotation
					JOINT RightArm
					{
						OFFSET -2.700000 1.550000 -0.730000
						CHANNELS 3 Zrotation Yrotation Xrotation
						JOINT RightForeArm
						{
							OFFSET -5.450000 0.000000 0.000000
							CHANNELS 3 Zrotation Yrotation Xrotation
							JOINT RightHand
							{
								OFFSET -3.450000 0.000000 0.000000
								CHANNELS 3 Zrotation Yrotation Xrotation
								JOINT RightHandIndex1
								{
									OFFSET -0.750000 0.000000 0.000000
									CHANNELS 3 Zrotation Yrotation Xrotation
									End Site
									{
										OFFSET 0.000000 0.000000 0.000000
									}
								}
							}
						}
					}
				}
			}
		}
	}
}
MOTION
Frames: 6
Frame Time: 0.016667
4.699140 16.655170 -2.547730 -18.404762 -0.422332 -4.192211 -14.905872 14.525461 2.501512 13.688810 -0.744365 -15.252260 3.041435 4.712914 19.766246 -0.044150 3.744894 3.132926 0.080780 -0.034850 0.112280 18.241789 -11.422196 2.788946 -6.062163 4.103441 -26.621872 -16.830791 1.042017 32.008836 -0.236336 -3.834701 2.960953 -0.097970 -0.059200 0.021470 -3.875205 -2.374527 -7.556487 15.877436 -1.815438 14.036278 6.053990 0.001785 -0.110881 -0.184607 -6.031649 -11.011084 -15.347158 4.543226 43.782749 -1.000940 1.011440 -1.467300 -15.178134 -2.584490 4.924921 -53.310510 7.208818 -9.334904 -35.449811 -17.349485 2.021684 -3.517600 3.106489 0.268540 -0.115860 0.110120 0.029440 15.858417 8.763890 5.458671 47.667184 -0.884948 -8.068018 4.280854 14.899995 -0.113272 2.688766 -1.114609 -0.020320 0.027140 -0.035570 -0.055900 
4.658650 16.649570 -2.549200 -18.715433 -1.150969 -3.774766 -14.942812 14.633565 2.482629 13.917741 -0.793098 -14.502353 3.665784 4.428792 18.569581 -0.054575 3.660293 3.174519 0.117750 0.016670 0.114780 18.206875 -11.307175 2.710242 -10.430583 3.448557 -29.135653 -14.817357 0.030002 29.909136 -0.153230 -3.446022 3.068571 -0.062670 -0.052920 0.013290 -3.760222 -2.782341 -7.500785 15.289803 -2.547146 14.435139 6.550874 -0.741753 -0.385111 -0.612532 -7.736679 -10.668089 -19.287802 6.829137 42.768326 -0.374140 1.610220 -2.577770 -15.377849 -1.120791 4.547427 -54.435236 6.754099 -9.122158 -35.594569 -18.250517 2.308944 -3.501126 3.121249 0.272530 -0.129770 0.115720 0.049010 17.039095 8.339900 4.993066 46.220094 -0.333208 -8.379309 4.200752 17.266504 -0.111587 2.659466 -1.127710 -0.018580 0.050700 -0.047810 -0.044310 
4.624210 16.650190 -2.571990 -19.063202 -2.365528 -3.384207 -14.973171 14.622266 2.413416 14.592358 -0.875054 -13.878852 3.801250 4.370697 17.809228 -0.056646 3.663727 3.173932 0.162480 0.080690 0.117800 18.223734 -10.972083 2.877545 -14.969185 3.044228 -33.487461 -13.006221 -0.961998 29.195929 -0.131590 -3.306809 3.079676 -0.022740 -0.058230 0.006710 -3.715529 -3.212347 -7.551205 15.638044 -3.723990 15.579670 6.113047 -1.592156 -1.115362 -0.819931 -9.640624 -10.538717 -24.191214 9.366431 41.832010 -0.486570 2.153690 -3.685610 -16.897928 -0.423869 4.129836 -55.182790 6.359885 -8.978209 -34.008327 -18.732679 2.216727 -3.490614 3.115710 0.276490 -0.148390 0.128600 0.069610 19.001530 8.752313 4.733846 44.578171 0.460765 -8.249996 4.255404 17.790380 -0.102361 2.650345 -1.133641 -0.008270 0.072150 -0.061570 -0.030590 
4.599130 16.641320 -2.606460 -18.869577 -4.539454 -2.790728 -14.997089 14.447303 2.307514 15.104629 -1.029157 -13.102065 2.854209 4.636546 17.456305 -0.057401 3.768786 3.144561 0.198430 0.136690 0.113180 18.285191 -10.469106 3.279304 -18.925555 2.535822 -38.380171 -10.536111 -1.916448 25.250145 -0.082755 -2.864213 3.208406 0.019660 -0.043430 0.002710 -3.733438 -3.468931 -7.655841 15.964965 -4.739255 16.708695 4.989134 -2.269782 -1.728992 -0.993330 -11.136188 -10.384102 -28.736131 11.820688 40.755709 -0.866700 2.645820 -4.278860 -18.881349 -0.420852 3.589476 -55.464879 5.118287 -8.290054 -31.705975 -17.886956 1.758716 -3.507722 3.096523 0.268130 -0.148780 0.129250 0.091900 21.280202 9.408710 4.469237 43.056620 1.602848 -7.669563 4.747893 16.548788 -0.111204 2.655272 -1.132069 -0.004850 0.102860 -0.067390 -0.013390 
4.575890 16.627690 -2.652360 -17.739155 -7.281959 -1.901882 -15.031188 14.265212 2.255881 14.750802 -1.239988 -12.688343 1.478350 4.973219 17.373310 -0.064378 3.866463 3.120446 0.215470 0.163510 0.107510 18.316067 -10.003538 3.691060 -20.360948 2.410554 -41.514819 -8.884360 -1.980360 18.065922 -0.017382 -2.178859 3.449150 0.049830 -0.020300 -0.004470 -3.703710 -3.620951 -7.783329 15.216184 -4.996308 17.553471 4.072463 -2.375069 -2.119783 -1.126303 -11.898444 -10.557478 -32.485618 14.284015 40.537910 -1.184240 3.352870 -3.670480 -20.905978 -1.579435 3.209859 -55.578892 2.988620 -7.014021 -28.811003 -15.872813 1.124181 -3.536034 3.070114 0.258350 -0.138140 0.118620 0.106150 23.627705 10.693588 4.615311 42.088551 2.291421 -6.975501 4.933001 13.937046 -0.196299 2.671990 -1.124313 -0.013910 0.130140 -0.065210 -0.004570 
4.558760 16.602080 -2.671910 -15.957831 -9.572787 -1.267888 -15.059522 14.144110 2.259027 13.617310 -1.385498 -12.139616 0.061488 5.240529 17.095278 -0.077257 3.923576 3.108035 0.229710 0.179340 0.111060 18.322382 -9.736983 3.899588 -20.793410 2.206537 -42.348814 -7.376963 -1.926617 12.517753 0.013254 -1.825228 3.568912 0.071900 -0.007850 -0.006950 -3.665604 -3.720253 -7.839962 13.979712 -5.151275 17.860803 2.990215 -2.604219 -2.139864 -1.182073 -12.111476 -10.878364 -35.900312 16.892071 41.192292 -1.496070 4.067900 -2.772350 -22.462083 -2.910986 3.028583 -55.926193 0.647619 -5.824590 -26.281992 -15.560189 0.967670 -3.548196 3.054542 0.258340 -0.132130 0.113300 0.108690 25.396125 11.605340 4.741253 42.245235 2.763065 -6.635307 4.840470 12.458247 -0.272168 2.679152 -1.117908 -0.021730 0.147940 -0.057610 -0.004230 
